<?xml version="1.0" encoding="iso-8859-1"?>
<!-- Uploaded to: SVG Repo, www.svgrepo.com, Generator: SVG Repo Mixer Tools -->
<svg height="800px" width="800px" version="1.1" id="Layer_1" xmlns="http://www.w3.org/2000/svg" xmlns:xlink="http://www.w3.org/1999/xlink" 
	 viewBox="0 0 511.999 511.999" xml:space="preserve">
<circle style="fill:#FFDB6C;" cx="247.796" cy="255.997" r="247.796"/>
<path style="fill:#FCC56B;" d="M300.895,467.216c-136.853,0-247.794-110.941-247.794-247.794c0-73.116,31.673-138.825,82.04-184.181
	C54.919,76.258,0,159.716,0,256.003c0,136.853,110.941,247.794,247.794,247.794c63.738,0,121.848-24.073,165.754-63.612
	C379.75,457.466,341.462,467.216,300.895,467.216z"/>
<g>
	<path style="fill:#F9A880;" d="M141.308,259.555c-18.402,0-33.321,14.918-33.321,33.32h66.641
		C174.628,274.473,159.71,259.555,141.308,259.555z"/>
	<path style="fill:#F9A880;" d="M431.948,259.555c-18.402,0-33.321,14.918-33.321,33.32h66.641
		C465.269,274.473,450.349,259.555,431.948,259.555z"/>
</g>
<path style="fill:#56586F;" d="M105.165,121.895c64.702-14.849,117.079-9.739,175.098,3.782c8.604,2.004,17.692,4.239,27.29,4.532
	c15.985,0.489,33.956-3.489,49.449-7.382c61.168-15.366,108.95-7.374,154.996,2.465l-3.402,27.211
	c-7.188,0.159-9.449,3.511-11.503,10.054c-10.747,34.242-1.594,93.16-81.048,86.233c-52.27-4.558-67.239-18.879-92.152-81.847
	c-2.12-5.356-3.497-14.207-15.602-13.88c-6.835,0.184-12.948,1.392-15.079,13.267c-3.973,22.126-34.188,82.245-95.535,82.179
	c-54.185-0.058-74.855-28.184-77.323-90.159c-0.306-7.695-7.012-9.156-11.035-9.246L105.165,121.895L105.165,121.895z"/>
<g>
	<path style="fill:#737891;" d="M199.128,113.331l-37.84,129.044c9.958,4.097,21.979,6.12,36.392,6.134
		c0.254,0,0.504-0.009,0.758-0.011l38.499-131.292C224.347,115.304,211.809,113.972,199.128,113.331z"/>
	<path style="fill:#737891;" d="M434.438,114.376c-12.593-0.403-25.665,0-39.395,1.534l-33.781,115.202
		c9.238,7.758,20.144,12.263,34.543,15.016L434.438,114.376z"/>
</g>
<path style="fill:#7F184C;" d="M299.414,437.536L299.414,437.536c-55.395,0-100.302-44.907-100.302-100.302l0,0h200.605l0,0
	C399.716,392.629,354.81,437.536,299.414,437.536z"/>
<path style="fill:#F2F2F2;" d="M223.585,337.234v15.657c0,6.602,5.352,11.953,11.953,11.953h127.751
	c6.602,0,11.953-5.352,11.953-11.953v-15.657H223.585z"/>
<path style="fill:#FC4C59;" d="M301.52,395.923c-27.113-12.597-57.2-10.766-81.598,2.298c18.333,23.895,47.164,39.315,79.609,39.315
	l0,0c14.298,0,27.886-3.012,40.195-8.403C330.695,415.16,317.747,403.464,301.52,395.923z"/>
<ellipse transform="matrix(0.2723 -0.9622 0.9622 0.2723 149.2661 353.8707)" style="fill:#FCEB88;" cx="308.589" cy="78.25" rx="28.897" ry="51.747"/>
</svg>