<!DOCTYPE svg PUBLIC "-//W3C//DTD SVG 1.1//EN" "http://www.w3.org/Graphics/SVG/1.1/DTD/svg11.dtd">
<!-- Uploaded to: SVG Repo, www.svgrepo.com, Transformed by: SVG Repo Mixer Tools -->
<svg width="79px" height="79px" viewBox="0 0 64 64" id="svg5" version="1.1" xml:space="preserve" xmlns="http://www.w3.org/2000/svg" xmlns:svg="http://www.w3.org/2000/svg" fill="#000000">
<g id="SVGRepo_bgCarrier" stroke-width="0"/>
<g id="SVGRepo_tracerCarrier" stroke-linecap="round" stroke-linejoin="round"/>
<g id="SVGRepo_iconCarrier"> <defs id="defs2"/> <g id="layer1" transform="translate(-96,-384)"> <path d="m 106,393 h 49 v 6 h -49 z" id="path27065" style="fill:#3e4f59;fill-opacity:1;fill-rule:evenodd;stroke-width:2;stroke-linecap:round;stroke-linejoin:round;stroke-miterlimit:4.1"/> <path d="m 106,399 h 49 v 40 h -49 z" id="path27067" style="fill:#acbec2;fill-opacity:1;fill-rule:evenodd;stroke-width:2.00001;stroke-linecap:round;stroke-linejoin:round;stroke-miterlimit:4.1"/> <path d="m 106,399 v 40 h 29.76953 a 28.484051,41.392605 35.599482 0 0 18.625,-40 z" id="path27069" style="fill:#e8edee;fill-opacity:1;fill-rule:evenodd;stroke:none;stroke-width:2.00002;stroke-linecap:round;stroke-linejoin:round;stroke-miterlimit:4.1"/> <path d="m 108,392 c -1.64501,0 -3,1.355 -3,3 v 40 c 0,0.55229 0.44772,1 1,1 0.55229,0 1,-0.44771 1,-1 v -40 c 0,-0.56413 0.43587,-1 1,-1 h 45 c 0.56413,0 1,0.43587 1,1 v 3 h -42 c -0.55228,0 -1,0.44772 -1,1 0,0.55229 0.44772,1 1,1 h 42 v 37 c 0,0.56413 -0.43587,1 -1,1 h -49 c -0.55228,0 -1,0.44772 -1,1 0,0.55229 0.44772,1 1,1 h 49 c 1.64501,0 3,-1.35499 3,-3 0,-14 0,-28 0,-42 0,-1.645 -1.35499,-3 -3,-3 z" id="path27071" style="color:#000000;fill:#000000;fill-rule:evenodd;stroke-linecap:round;stroke-linejoin:round;stroke-miterlimit:4.1"/> <path d="m 151,395 c -0.55228,0 -1,0.44772 -1,1 0,0.55229 0.44772,1 1,1 0.55229,0 1,-0.44771 1,-1 0,-0.55228 -0.44771,-1 -1,-1 z" id="path27073" style="color:#000000;fill:#ed7161;fill-opacity:1;fill-rule:evenodd;stroke-linecap:round;stroke-linejoin:round;stroke-miterlimit:4.1;-inkscape-stroke:none"/> <path d="m 147,395 c -0.55228,0 -1,0.44772 -1,1 0,0.55229 0.44772,1 1,1 0.55229,0 1,-0.44771 1,-1 0,-0.55228 -0.44771,-1 -1,-1 z" id="path27075" style="color:#000000;fill:#ecba16;fill-opacity:1;fill-rule:evenodd;stroke-linecap:round;stroke-linejoin:round;stroke-miterlimit:4.1;-inkscape-stroke:none"/> <path d="m 143,395 c -0.55228,0 -1,0.44772 -1,1 0,0.55229 0.44772,1 1,1 0.55229,0 1,-0.44771 1,-1 0,-0.55228 -0.44771,-1 -1,-1 z" id="path27077" style="color:#000000;fill:#4bd86c;fill-opacity:1;fill-rule:evenodd;stroke-linecap:round;stroke-linejoin:round;stroke-miterlimit:4.1;-inkscape-stroke:none"/> <path d="m 101,438 a 1,1 0 0 0 -1,1 1,1 0 0 0 1,1 1,1 0 0 0 1,-1 1,1 0 0 0 -1,-1 z" id="path27079" style="color:#000000;fill:#000000;fill-rule:evenodd;stroke-linecap:round;stroke-linejoin:round;stroke-miterlimit:4.1;-inkscape-stroke:none"/> <path d="m 109,398 c -0.55228,0 -1,0.44772 -1,1 0,0.55229 0.44772,1 1,1 0.55229,0 1,-0.44771 1,-1 0,-0.55228 -0.44771,-1 -1,-1 z" id="path27081" style="color:#000000;fill:#000000;fill-rule:evenodd;stroke-linecap:round;stroke-linejoin:round;stroke-miterlimit:4.1;-inkscape-stroke:none"/> <path d="m 124.25726,410.00002 h 24 l -5.00001,17.99999 h -24.00001 z" id="rect1374-6" style="fill:#0075d3;fill-opacity:1;fill-rule:evenodd;stroke:none;stroke-width:1.99999;stroke-linecap:round;stroke-linejoin:round;stroke-miterlimit:4.1"/> <path d="m 124.25748,410 -5,18 h 22.08399 a 14,15 0 0 0 1.6582,-7 14,15 0 0 0 -4.48438,-11 z" id="path29166" style="fill:#0588e2;fill-opacity:1;fill-rule:evenodd;stroke:none;stroke-width:2;stroke-linecap:round;stroke-linejoin:round;stroke-miterlimit:4.1;stroke-opacity:1"/> <path d="m 124.25726,410 8.99999,11 15.00001,-11 z" id="path1381-7" style="fill:#ffa221;fill-opacity:1;fill-rule:evenodd;stroke:none;stroke-width:1.99999;stroke-linecap:round;stroke-linejoin:round;stroke-miterlimit:4.1"/> <path d="m 112.20084,413 a 1,1 0 0 0 -1,1 1,1 0 0 0 1,1 h 6.61133 a 1,1 0 0 0 1,-1 1,1 0 0 0 -1,-1 z" id="path3419-5" style="color:#000000;fill:#000000;fill-opacity:1;fill-rule:evenodd;stroke-linecap:round;stroke-linejoin:round;stroke-miterlimit:4.1"/> <path d="m 112.18522,418 a 1,1 0 0 0 -1,1 1,1 0 0 0 1,1 h 4.64258 a 1,1 0 0 0 1,-1 1,1 0 0 0 -1,-1 z" id="path3421-3" style="color:#000000;fill:#000000;fill-opacity:1;fill-rule:evenodd;stroke-linecap:round;stroke-linejoin:round;stroke-miterlimit:4.1"/> <path d="m 112.15787,423 a 1,1 0 0 0 -1,1 1,1 0 0 0 1,1 h 2.69922 a 1,1 0 0 0 1,-1 1,1 0 0 0 -1,-1 z" id="path3423-5" style="color:#000000;fill:#000000;fill-opacity:1;fill-rule:evenodd;stroke-linecap:round;stroke-linejoin:round;stroke-miterlimit:4.1"/> <path d="m 124.25748,410 9,11 7.70117,-5.64648 a 12.5,7 0 0 0 0.041,-0.35352 12.5,7 0 0 0 -3.75586,-5 z" id="path28136" style="fill:#ffc343;fill-opacity:1;fill-rule:evenodd;stroke:none;stroke-width:2;stroke-linecap:round;stroke-linejoin:round;stroke-miterlimit:4.1;stroke-opacity:1"/> <path d="m 124.25781,409 a 1.000095,1.000095 0 0 0 -0.96484,0.73242 c -1.66667,6 -3.33332,12.00003 -5,18 A 1.000095,1.000095 0 0 0 119.25781,429 h 24 a 1.000095,1.000095 0 0 0 0.96289,-0.73242 l 0.82813,-2.97852 a 0.99999499,0.99999499 0 0 0 -0.69727,-1.23242 0.99999499,0.99999499 0 0 0 -1.23047,0.69727 L 142.49805,427 h -21.92578 c 1.37717,-4.95779 2.75554,-9.91528 4.13281,-14.87305 l 7.77734,9.50586 c 0.33652,0.41164 0.9363,0.48801 1.36524,0.17383 l 5.53125,-4.05469 c 0.44572,-0.3267 0.54194,-0.953 0.21484,-1.39843 -0.3267,-0.44573 -0.95301,-0.54195 -1.39844,-0.21485 l -4.76562,3.49414 L 126.36719,411 H 129 a 0.99999499,0.99999499 0 0 0 1,-1 0.99999499,0.99999499 0 0 0 -1,-1 z M 133,409 a 0.99999499,0.99999499 0 0 0 -1,1 0.99999499,0.99999499 0 0 0 1,1 h 12.20312 l -3.5664,2.61523 c -0.44573,0.3267 -0.54194,0.95301 -0.21484,1.39844 0.32657,0.4445 0.95139,0.54062 1.39648,0.21485 l 3.70312,-2.71485 -2.38281,8.57422 a 0.99999499,0.99999499 0 0 0 0.69727,1.23242 0.99999499,0.99999499 0 0 0 1.23047,-0.69531 l 3.15429,-11.35742 A 1.000095,1.000095 0 0 0 148.25781,409 Z" id="path21400" style="color:#000000;fill:#000000;fill-rule:evenodd;stroke-linecap:round;stroke-linejoin:round;stroke-miterlimit:4.1;-inkscape-stroke:none"/> </g> </g>
</svg>