<!DOCTYPE svg PUBLIC "-//W3C//DTD SVG 1.1//EN" "http://www.w3.org/Graphics/SVG/1.1/DTD/svg11.dtd">
<!-- Uploaded to: SVG Repo, www.svgrepo.com, Transformed by: SVG Repo Mixer Tools -->
<svg version="1.1" id="Layer_1" xmlns="http://www.w3.org/2000/svg" xmlns:xlink="http://www.w3.org/1999/xlink" viewBox="0 0 511.999 511.999" xml:space="preserve" width="800px" height="800px" fill="#000000">
<g id="SVGRepo_bgCarrier" stroke-width="0"/>
<g id="SVGRepo_tracerCarrier" stroke-linecap="round" stroke-linejoin="round"/>
<g id="SVGRepo_iconCarrier"> <circle style="fill:#ECF0F1;" cx="255.999" cy="255.999" r="255.999"/> <circle style="fill:#FAD24D;" cx="255.999" cy="255.999" r="255.999"/> <path style="fill:#FFFFFF;" d="M89.574,61.493h332.854h49.548c6.004,0,10.916,4.916,10.916,10.916v64.96v237.266 c-95.573,182.404-358.213,182.404-453.784-0.002V137.372V72.409c0-6.004,4.911-10.916,10.916-10.916 C40.023,61.493,89.574,61.493,89.574,61.493z"/> <path style="fill:#828282;" d="M40.023,61.493h431.951c6.004,0,10.916,4.911,10.916,10.916V94.24H29.105V72.409 c0-6.004,4.911-10.916,10.916-10.916C40.021,61.493,40.023,61.493,40.023,61.493z"/> <path style="fill:#FFFFFF;" d="M231.129,72.797h219.2c1.62,0,2.933,1.313,2.933,2.933v5.44c0,1.62-1.313,2.933-2.933,2.933h-219.2 c-1.62,0-2.933-1.313-2.933-2.933v-5.44C228.195,74.11,229.508,72.797,231.129,72.797z"/> <circle style="fill:#21D0C3;" cx="50.88" cy="77.14" r="6.286"/> <circle style="fill:#FAD24D;" cx="75.691" cy="77.14" r="6.286"/> <circle style="fill:#FF5B62;" cx="100.503" cy="77.14" r="6.286"/> <rect x="53.667" y="106.243" style="fill:#21D0C3;" width="404.668" height="238.453"/> <rect x="53.667" y="335.853" style="fill:#C0C1C4;" width="404.668" height="8.846"/> <rect x="53.667" y="335.853" style="fill:#FF5B62;" width="127.52" height="8.846"/> <path style="fill:#828282;" d="M422.977,281.376l11.688-15.676l27.484,15.867l-7.74,17.983c5.327,4.405,10.227,9.308,14.632,14.634 l17.983-7.74l15.869,27.484l-15.678,11.688c2.389,6.405,4.19,13.098,5.347,20.006l19.437,2.288v31.736l-19.437,2.288 c-1.157,6.909-2.957,13.6-5.347,20.006l15.676,11.688l-15.867,27.484l-17.985-7.74c-4.405,5.327-9.306,10.227-14.632,14.632 l7.74,17.983l-27.484,15.869l-11.69-15.678c-6.405,2.389-13.098,4.19-20.006,5.347l-2.285,19.437h-31.736l-2.288-19.437 c-6.909-1.157-13.6-2.957-20.006-5.347l-11.688,15.676l-27.484-15.867l7.74-17.985c-5.327-4.405-10.227-9.306-14.632-14.632 l-17.983,7.74l-15.869-27.484l15.678-11.69c-2.389-6.405-4.19-13.098-5.347-20.006l-19.437-2.285v-31.736l19.437-2.286 c1.157-6.909,2.957-13.6,5.347-20.006l-15.676-11.688l15.867-27.484l17.985,7.74c4.405-5.327,9.306-10.227,14.632-14.632 l-7.74-17.983l27.484-15.869l11.69,15.678c6.405-2.389,13.096-4.19,20.006-5.347l2.285-19.437h31.736l2.285,19.437 C409.877,277.185,416.572,278.987,422.977,281.376z"/> <circle style="fill:#FFFFFF;" cx="384.817" cy="383.769" r="94.106"/> <circle style="fill:#21D0C3;" cx="384.817" cy="383.769" r="90.044"/> <path style="fill:#FAD24D;" d="M380.13,312.006c0.497-3.22,4.461-4.933,6.271-2.569l59.505,77.772 c1.809,2.364-0.886,5.742-4.119,5.38c-37.573-4.203-58.609,3.122-70.395,12.75l-21.975-28.722 C361.79,367.758,374.359,349.373,380.13,312.006z"/> <path style="fill:#FFFFFF;" d="M321.78,409.466l4.423-3.384l10.678,13.953l-4.423,3.384c-0.569,0.435-1.39,0.326-1.825-0.242 l-9.092-11.886c-0.435-0.569-0.326-1.39,0.242-1.825H321.78z"/> <path style="fill:#FAD24D;" d="M323.484,402.358l10.945-8.373l16.28,21.278l-10.945,8.374c-1.407,1.079-3.441,0.808-4.518-0.602 l-12.363-16.157C321.805,405.469,322.076,403.435,323.484,402.358z"/> <g> <path style="fill:#FFFFFF;" d="M333.922,386.364l24.817-18.987l24.009,31.379l-24.817,18.987 c-3.193,2.444-7.805,1.829-10.249-1.363l-15.123-19.766C330.116,393.422,330.729,388.81,333.922,386.364z"/> <path style="fill:#FFFFFF;" d="M379.582,307.305l3.232-2.472c0.563-0.431,1.673,0.075,2.48,1.129l63.678,83.226 c0.806,1.054,1.004,2.258,0.441,2.689l-3.232,2.472c-0.563,0.43-1.673-0.075-2.48-1.129l-63.678-83.226 C379.217,308.939,379.019,307.735,379.582,307.305z"/> </g> <path style="fill:#FFBA1B;" d="M411.472,340.176c4.301-0.644,8.811,1.008,11.639,4.705c2.831,3.697,3.244,8.484,1.499,12.468 L411.472,340.176z"/> <path style="fill:#FFFFFF;" d="M444.542,341.704l-12.214,4.163l-0.522-1.534l12.214-4.163l0.522,1.532V341.704z M445.18,364.587 l-12.092-4.501l-0.564,1.519l12.092,4.501L445.18,364.587z M441.293,359.482l-7.012-2.609l-0.564,1.517l7.012,2.609l0.564-1.519 V359.482z M410.319,319.022l1.182,12.85l-1.612,0.149l-1.182-12.85L410.319,319.022z M414.229,324.107l0.686,7.449l-1.612,0.149 l-0.684-7.449L414.229,324.107z M430.978,324.573l-7.357,10.602l-1.33-0.924l7.357-10.602L430.978,324.573z M430.705,330.984 l-4.266,6.146l-1.33-0.924l4.264-6.146l1.33,0.923h0.002V330.984z M440.517,346.695l-7.081,2.413l-0.524-1.534l7.081-2.413 l0.522,1.532L440.517,346.695z"/> <path style="fill:#FAD24D;" d="M374.131,405.349c1.672,2.012,1.836,5.109,5.904,11.782c2.285,3.748,6.137,2.041,6.978,7.228 c0.841,5.185,5.009,4.933,6.681,6.945c1.672,2.012,0.693,4.197,4.114,7.239l-11.759,8.997c-5.047-4.152-12.437-11.324-19.584-22.252 c-2.6-3.977-4.612-7.018-6.168-9.35l13.831-10.584L374.131,405.349z"/> <g> <path style="fill:#FFFFFF;" d="M385.851,447.692l12.794-9.789c0.13-0.1,0.282-0.119,0.34-0.043l1.936,2.531 c0.058,0.076,0,0.219-0.131,0.317l-12.794,9.789c-0.13,0.1-0.282,0.119-0.34,0.043l-1.936-2.531 C385.662,447.934,385.72,447.791,385.851,447.692z"/> <path style="fill:#FFFFFF;" d="M375.026,404.666l9.47,8.929l-4.458,3.535l-6.741-11.14l1.732-1.323L375.026,404.666 L375.026,404.666z"/> </g> <circle style="fill:#FF5B62;" cx="255.999" cy="215.339" r="60.597"/> <path style="fill:#ED4C54;" d="M244.413,179.059l44.985,38.095l-44.985,38.095L244.413,179.059L244.413,179.059z"/> <path style="fill:#FFFFFF;" d="M243.165,176.408l44.985,38.095l-44.985,38.095L243.165,176.408L243.165,176.408z"/> <rect x="70.813" y="360.225" style="fill:#21D0C3;" width="116.761" height="7.598"/> <path style="fill:#C0C1C4;" d="M70.813,375.902h161.008v3.404H70.813V375.902z M70.813,395.799h105.649v3.404H70.813V395.799z M70.813,385.849h161.008v3.404H70.813V385.849z"/> </g>
</svg>