<!DOCTYPE svg PUBLIC "-//W3C//DTD SVG 1.1//EN" "http://www.w3.org/Graphics/SVG/1.1/DTD/svg11.dtd">
<!-- Uploaded to: SVG Repo, www.svgrepo.com, Transformed by: SVG Repo Mixer Tools -->
<svg height="800px" width="800px" version="1.1" id="Layer_1" xmlns="http://www.w3.org/2000/svg" xmlns:xlink="http://www.w3.org/1999/xlink" viewBox="0 0 504.123 504.123" xml:space="preserve" fill="#000000">
<g id="SVGRepo_bgCarrier" stroke-width="0"/>
<g id="SVGRepo_tracerCarrier" stroke-linecap="round" stroke-linejoin="round"/>
<g id="SVGRepo_iconCarrier"> <circle style="fill:#4cd681;" cx="252.062" cy="252.062" r="252.062"/> <polygon style="fill:#FFFFFF;" points="258.363,260.726 258.363,210.708 245.76,210.708 245.76,260.726 172.111,294.203 177.231,305.625 252.062,271.36 326.892,305.625 332.012,294.203 "/> <circle style="fill:#FF7058;" cx="159.508" cy="318.228" r="30.72"/> <path style="fill:#F1543F;" d="M184.714,354.855c-7.089,5.12-15.754,7.877-25.206,7.877s-18.117-2.757-25.206-7.877 c-20.874,9.452-35.446,30.326-35.446,54.745h120.911C219.766,385.182,205.194,364.308,184.714,354.855z"/> <circle style="fill:#84DBFF;" cx="344.615" cy="318.228" r="30.72"/> <path style="fill:#54C0EB;" d="M369.822,354.855c-7.089,5.12-15.754,7.877-25.206,7.877s-18.117-2.757-25.206-7.877 c-20.874,9.452-35.446,30.326-35.446,54.745h120.911C405.268,385.182,390.695,364.308,369.822,354.855z"/> <circle style="fill:#FFD05B;" cx="252.062" cy="125.243" r="30.72"/> <path style="fill:#F9B54C;" d="M277.268,161.477c-7.089,5.12-15.754,7.877-25.206,7.877s-18.117-2.757-25.206-7.877 c-20.874,9.452-35.446,30.326-35.446,54.745H312.32C312.32,192.197,298.142,170.929,277.268,161.477z"/> </g>
</svg>